<svg width="36" height="36" viewBox="0 0 36 36" fill="none" xmlns="http://www.w3.org/2000/svg">
<path fill-rule="evenodd" clip-rule="evenodd" d="M33.5516 27.0759C34.1686 26.0209 34.6812 24.8976 35.0755 23.7199L0.529418 13.6504C0.449939 13.9706 0.379032 14.2942 0.316951 14.6209L33.5516 27.0759ZM0.706237 12.992L35.7101 21.2516C35.8841 20.2975 35.9828 19.3171 36 18.3169L0.943607 12.2346C0.859092 12.4847 0.779926 12.7372 0.706237 12.992ZM1.1605 11.629L35.889 15.9673C35.7853 15.0447 35.6118 14.1433 35.374 13.2683L1.44902 10.9139C1.34791 11.1497 1.2517 11.3881 1.1605 11.629ZM1.65502 10.4516L34.8323 11.6029C32.2522 4.82 25.6896 0.000225969 18.0014 0.000226641C10.7556 0.000227274 4.50979 4.2811 1.65502 10.4516ZM0.183452 15.4219L31.8597 29.4913C28.5577 33.4695 23.5754 36.0029 18.0014 36.0029C8.05948 36.0029 6.14443e-07 27.9435 -2.54703e-07 18.0016C-3.31277e-07 17.1257 0.0625568 16.2644 0.183452 15.4219Z" fill="black"/>
</svg>
