<svg width="193" height="253" viewBox="0 0 193 253" fill="none" xmlns="http://www.w3.org/2000/svg">
<path d="M185.364 8.09561H130.727V6.77772C130.727 3.0348 127.692 0 123.949 0H68.1931C64.4502 0 61.4154 3.0348 61.4154 6.77772V8.09561H6.77772C3.0348 8.09561 0 11.1304 0 14.8733V41.6414C0 45.3843 3.0348 48.4191 6.77772 48.4191H185.364C189.107 48.4191 192.142 45.3843 192.142 41.6414V14.8733C192.142 11.1304 189.107 8.09561 185.364 8.09561Z" fill="white"/>
<path d="M175.181 62.1543H16.9611C13.2181 62.1543 10.1833 65.1891 10.1833 68.932V246.122C10.1833 249.865 13.2181 252.9 16.9611 252.9H175.181C178.924 252.9 181.959 249.865 181.959 246.122V68.932C181.959 65.1891 178.924 62.1543 175.181 62.1543ZM63.8768 228.509C63.8768 232.252 60.842 235.287 57.0991 235.287H50.7907C47.0477 235.287 44.0129 232.252 44.0129 228.509V86.5451C44.0129 82.8022 47.0477 79.7674 50.7907 79.7674H57.0991C60.842 79.7674 63.8768 82.8022 63.8768 86.5451V228.509ZM106.004 228.509C106.004 232.252 102.97 235.287 99.2266 235.287H92.9182C89.1752 235.287 86.1405 232.252 86.1405 228.509V86.5451C86.1405 82.8022 89.1752 79.7674 92.9182 79.7674H99.2266C102.97 79.7674 106.004 82.8022 106.004 86.5451V228.509ZM148.129 228.509C148.129 232.252 145.094 235.287 141.351 235.287H135.043C131.3 235.287 128.265 232.252 128.265 228.509V86.5451C128.265 82.8022 131.3 79.7674 135.043 79.7674H141.351C145.094 79.7674 148.129 82.8022 148.129 86.5451V228.509Z" fill="white"/>
</svg>
